<svg xmlns="http://www.w3.org/2000/svg" width="766" height="252" viewBox="0 0 766 252" fill="none">
  <g clip-path="url(#a)" fill="#fff">
    <path d="M171.319 21h-59.32c-1.982 0-3.57 1.64-3.613 3.679-1.199 57.308-30.344 111.7-80.509 150.226a3.797 3.797 0 0 0-.79 5.175l34.706 49.368c1.18 1.68 3.481 2.06 5.1.825 31.367-23.932 56.597-52.802 74.766-84.801 18.169 31.999 43.4 60.869 74.767 84.801 1.618 1.235 3.919.855 5.101-.825l34.707-49.368a3.8 3.8 0 0 0-.792-5.175c-50.166-38.526-79.311-92.918-80.508-150.226-.043-2.039-1.633-3.679-3.615-3.679Zm566.489 72.073h-15.899V73.924c0-1.015-.452-1.95-1.242-2.569a3.108 3.108 0 0 0-2.683-.58l-13.987 3.441c-1.433.353-2.433 1.648-2.433 3.15v15.707h-7.971c-1.76 0-3.192 1.46-3.192 3.254v11.589c0 1.795 1.432 3.256 3.194 3.256h7.969v46.753c.181 19.874 12.901 22.613 26.618 22.613 1.357 0 2.713-.039 4.091-.08 1.39-.042 2.8-.085 4.253-.085l.162-.011c1.869-.24 3.03-1.546 3.03-3.409v-12.418c0-1.795-1.432-3.253-3.192-3.253h-4.813c-6.964 0-9.804-3.086-9.804-10.653v-39.457h15.899c1.762 0 3.192-1.461 3.192-3.256V96.327c0-1.795-1.43-3.254-3.192-3.254Zm-84.481-1.607c-8.272 0-14.753 2.582-19.302 7.68v-3.07c0-1.868-1.364-3.277-3.173-3.277h-14.664c-1.81 0-3.174 1.409-3.174 3.277v81.183c0 1.869 1.364 3.279 3.174 3.279h14.664c1.809 0 3.173-1.41 3.173-3.279v-50.843c0-9.407 5.643-15.727 14.043-15.727 8.431 0 13.882 6.238 13.882 15.892v50.678c0 1.869 1.363 3.279 3.172 3.279h14.665c1.809 0 3.173-1.41 3.173-3.279v-54.677c0-18.902-11.631-31.116-29.633-31.116Zm-74.764 36.498h-30.87c.181-2.787.531-4.735 1.154-6.441l.029-.088c2.009-7.034 6.829-10.75 13.937-10.75 7.655 0 13.076 4.263 14.894 11.783.386 1.218.688 3.184.856 5.496Zm-15.75-36.498c-16.847 0-29.612 9.753-34.141 26.062-1.484 4.868-2.122 10.944-1.947 18.546 0 9.348 1.218 16.87 3.71 22.966 5.517 14.486 17.567 22.648 33.94 22.977.2.003.4.005.601.005 13.628 0 25.316-5.771 32.15-15.922.967-1.535.716-3.071-.713-4.331l-9.769-8.493c-.909-.802-1.755-.877-2.308-.811-.583.078-1.44.409-2.216 1.556-3.886 5.825-9.269 8.778-15.978 8.778-9.152-.151-14.965-3.946-17.323-11.404-.694-1.616-.999-3.963-1.267-6.542h48.842c1.871 0 3.13-1.308 3.138-3.258.165-5.633.142-10.056-.481-14.665-2.649-23.534-14.841-35.465-36.238-35.465Zm-70.376 43.971c0 9.094-.342 11.44-1.072 14.323-1.663 6.903-6.696 10.862-13.811 10.862-7.032 0-12.498-4.149-14.652-11.184-.682-1.773-1.496-5.61-1.496-13.837 0-6.501.573-10.942 1.833-14.058 2.327-7.07 7.487-11.126 14.156-11.126 7.064 0 12.226 4.118 13.826 11.081.864 2.994 1.216 5.092 1.216 13.939Zm17.712-42.658h-14.557c-1.798 0-3.155 1.39-3.155 3.234v2.18c-4.832-4.525-11.118-6.727-19.155-6.727-14.221 0-25.835 8.77-30.299 22.856-2.307 6.633-2.603 14.857-2.603 21.279 0 8.431.668 14.85 2.111 20.24 5.032 16.894 19.777 22.912 31.898 22.912 7.553 0 13.62-2.143 18.046-6.356-.083 7.059-1.922 12.14-5.616 15.522-4.839 4.428-13.028 6.021-25.154 4.878-3.135 0-3.473 2.145-3.473 3.022l-.474 13.517c0 1.891 1.059 3.157 2.866 3.393 3.004.312 5.925.468 8.744.468 13.565 0 24.86-3.585 32.365-10.388 7.704-6.985 11.61-17.217 11.61-30.411V96.013c0-1.844-1.356-3.234-3.154-3.234Zm-78.03 1.496c-2.233-.892-4.693-1.325-7.522-1.325-7.515 0-13.633 3.049-18.225 9.069v-4.847c0-1.784-1.426-3.236-3.18-3.236h-14.696c-1.754 0-3.18 1.45-3.18 3.234v80.132c0 1.783 1.428 3.236 3.182 3.236h14.694c1.754 0 3.18-1.453 3.18-3.236v-46.565c0-10.039 7.263-14.949 14.567-15.371 2.535-.355 3.97-.239 5.588.081 1.805.357 3.51-.749 3.914-2.519l3.897-14.295c.396-1.82-.558-3.693-2.219-4.358Zm-82.525 48.986v7.283c0 8.671-8.93 13.852-17.565 13.852-5.815 0-12.03-2.56-12.03-9.747 0-7.237 6.113-11.388 16.773-11.388h12.822Zm-13.77-50.311c-16.07 0-28.897 7.411-32.679 18.881a3.548 3.548 0 0 0 .302 2.909 3.29 3.29 0 0 0 2.19 1.569l14.337 3.62a3.235 3.235 0 0 0 3.574-1.928c1.64-3.941 6.166-6.111 12.75-6.111 8.698 0 13.296 4.222 13.296 12.21v3.506h-16.458c-21.374 0-34.136 10.6-34.136 28.358 0 19.213 14.695 26.058 28.446 26.058 9.222 0 16.845-2.76 22.148-7.981v3.439c0 1.78 1.413 3.228 3.149 3.228h14.543c1.736 0 3.148-1.448 3.148-3.228v-55.35c0-17.181-14.231-29.18-34.61-29.18Z"/>
  </g>
  <defs>
    <clipPath id="a">
      <path fill="#fff" d="M0 0h766v252H0z"/>
    </clipPath>
  </defs>
</svg>
